PathFileType	4	(X/Y/Z)	./resultDataOpenSim/trcMotMarkerGrf/sub06/qtm-02-02.trc
DataRate	CameraRate	NumFrames	NumMarkers	Units	OrigDataRate	OrigDataStartFrame	OrigNumFrames
250.000000	250.000000	8	24	m	250.000000	242	483
Frame#	Time	L.Toe.Tip			R.Toe.Tip			L.Ankle.Lat			R.Ankle.Lat			L.Ankle.Med			R.Ankle.Med			L.Heel			R.Heel			L.Knee.Lat			R.Knee.Lat			L.Knee.Med			R.Knee.Med			L.Thigh.Upper			R.Thigh.Upper			L.ASIS			R.ASIS			V.Sacral			L.Acromium			R.Acromium			C7			L.Elbow			R.Elbow			L.Wrist.Lat			R.Wrist.Lat
		X1	Y1	Z1	X2	Y2	Z2	X3	Y3	Z3	X4	Y4	Z4	X5	Y5	Z5	X6	Y6	Z6	X7	Y7	Z7	X8	Y8	Z8	X9	Y9	Z9	X10	Y10	Z10	X11	Y11	Z11	X12	Y12	Z12	X13	Y13	Z13	X14	Y14	Z14	X15	Y15	Z15	X16	Y16	Z16	X17	Y17	Z17	X18	Y18	Z18	X19	Y19	Z19	X20	Y20	Z20	X21	Y21	Z21	X22	Y22	Z22	X23	Y23	Z23	X24	Y24	Z24

242	0.964	0.086358057	0.0092659093	-0.065251867	0.65466325	0.11368182	0.13077689	-0.031463318	0.061778945	-0.08287066	0.5184103	0.096115704	0.13951973	-0.024319917	0.075422312	0.0036212784	0.53924087	0.12967518	0.057002164	-0.10658297	0.045659636	-0.033573655	0.48241432	0.061645909	0.071741657	0.1075436	0.40746038	-0.099701213	0.43541241	0.48198189	0.15503998	0.095183947	0.41062962	0.02022794	0.42434101	0.46039075	0.028551803	0.19255542	0.78442599	-0.16655853	0.23245709	0.79123389	0.18874264	0.27778006	0.82866631	-0.12802473	0.30106094	0.84273613	0.1167339	0.10578437	0.90530505	0.016568761	0.26084406	1.3197594	-0.1800363	0.22956334	1.3041256	0.17888647	0.1724311	1.3493997	-0.0086624282	0.27269737	0.99559058	-0.26228312	0.07719569	1.0288564	0.22272768	0.49775245	0.90507719	-0.21787746	0.11815041	0.80630535	0.30229619
243	0.968	0.086377747	0.009232889	-0.06533746	0.67020602	0.1158816	0.13051645	-0.030806298	0.062388915	-0.083295827	0.53406731	0.096409016	0.14002782	-0.023733619	0.076092003	0.0031277745	0.5540915	0.13041065	0.057513828	-0.10618244	0.046899396	-0.034123583	0.49837747	0.061565004	0.072397594	0.11057888	0.40711846	-0.10003642	0.44217995	0.47964092	0.15448189	0.098994726	0.41005896	0.019720819	0.43147815	0.45767432	0.027571266	0.19774966	0.78334779	-0.16627933	0.24000283	0.78948077	0.188882	0.28389146	0.82746418	-0.12795047	0.30829862	0.84124841	0.1165951	0.1135308	0.90278278	0.018485362	0.2674483	1.3183525	-0.17969042	0.23600323	1.3025689	0.17935953	0.17896269	1.3481519	-0.0082633517	0.28192333	0.99446044	-0.26226387	0.082755324	1.0279713	0.22288851	0.50757119	0.90667087	-0.21645357	0.12123312	0.80538705	0.3032302
244	0.972	0.086391449	0.0092020141	-0.065433629	0.68507031	0.11815553	0.13026912	-0.030171347	0.063044692	-0.083779591	0.54908626	0.096879183	0.14056055	-0.023163692	0.07678493	0.0026427174	0.56829053	0.13116246	0.057961733	-0.10582398	0.048238974	-0.034781248	0.51365589	0.061553275	0.073110987	0.11382285	0.40672788	-0.10037988	0.44902532	0.47733428	0.15394704	0.10299265	0.40938931	0.019206672	0.43864399	0.45497355	0.026535765	0.20294799	0.78224441	-0.16596634	0.2475261	0.78769391	0.18896739	0.28979752	0.82615238	-0.1280441	0.31549549	0.83970496	0.11639997	0.12121374	0.9005295	0.02020394	0.27404568	1.3169063	-0.17933667	0.24246928	1.3009886	0.17985528	0.18537063	1.3468943	-0.0077273997	0.29122271	0.99334342	-0.26210841	0.08843511	1.027033	0.22309185	0.51731099	0.90817037	-0.21502729	0.12433286	0.804423	0.30411803
245	0.976	0.086369774	0.0091595256	-0.065552149	0.6992236	0.12052287	0.13000414	-0.02957307	0.063739381	-0.084282845	0.56346613	0.097449013	0.14105507	-0.022581314	0.077503957	0.0021743454	0.58180927	0.1318752	0.058314423	-0.10547575	0.049647981	-0.035497084	0.52823689	0.061519688	0.07383053	0.11726036	0.40629365	-0.10071438	0.45597402	0.47510875	0.15344126	0.10709075	0.40863107	0.018745744	0.44583713	0.45232941	0.025470386	0.20813441	0.78108596	-0.16563226	0.25502498	0.78588303	0.18899626	0.29540114	0.82466234	-0.12841131	0.32274433	0.83816745	0.11619866	0.12869992	0.89867077	0.021627054	0.28063628	1.3154233	-0.17896953	0.24894784	1.2993886	0.1803695	0.19176935	1.3456061	-0.0071761327	0.30055985	0.9922468	-0.26184164	0.094213759	1.0260481	0.22333687	0.52697455	0.90958999	-0.21359362	0.1276254	0.80344011	0.30499839
246	0.98	0.086304586	0.0090981014	-0.065689826	0.71264301	0.12295915	0.12970654	-0.028956293	0.064436745	-0.084798053	0.57717035	0.098051963	0.14145167	-0.021966178	0.0782402	0.0017228822	0.59464103	0.13250023	0.058528356	-0.10510409	0.051102174	-0.036223587	0.5421208	0.061399208	0.074481733	0.1208719	0.40581685	-0.10103026	0.46303761	0.47301389	0.15294283	0.11115587	0.40779738	0.018411451	0.4530712	0.44978787	0.024414647	0.21330612	0.77987723	-0.16529212	0.26249777	0.78405792	0.18896621	0.3008352	0.82307191	-0.12894475	0.3300781	0.83666461	0.11601401	0.13585512	0.89722193	0.022758984	0.28722043	1.3139059	-0.17858608	0.25542807	1.2977745	0.18089559	0.19822356	1.3442772	-0.0066737535	0.30991471	0.99117181	-0.26147673	0.10007184	1.0250216	0.22362196	0.53656126	0.91093235	-0.21215561	0.13118435	0.80244751	0.30589226
247	0.984	0.086233993	0.0090327413	-0.065820735	0.72529782	0.1253838	0.12939396	-0.02828233	0.06512051	-0.085313422	0.59014119	0.098627583	0.14169549	-0.02132767	0.078977459	0.0012788159	0.60681071	0.13301056	0.058566377	-0.10468804	0.052593921	-0.036927072	0.55531419	0.061157289	0.074985408	0.12464106	0.40529818	-0.1013258	0.47022333	0.47110042	0.15242061	0.11507172	0.40691841	0.018259587	0.46034639	0.44738101	0.02340467	0.21848236	0.77864094	-0.16496729	0.26994321	0.78222847	0.18887521	0.30636582	0.82153528	-0.1294213	0.33747643	0.83518206	0.11583797	0.14264217	0.8960597	0.02370693	0.29379913	1.3123593	-0.17818574	0.26191901	1.296151	0.18143495	0.20473232	1.3429131	-0.0062104394	0.31927439	0.99011655	-0.26102156	0.10599372	1.0239577	0.22394508	0.54607111	0.91218912	-0.210717	0.1349746	0.8014341	0.30679599
248	0.988	0.086201339	0.008984457	-0.065925402	0.73716187	0.12767627	0.12909492	-0.027556057	0.065805622	-0.085807629	0.60232237	0.099121141	0.14174231	-0.020672776	0.079711488	0.00084053739	0.61836102	0.13340448	0.05839965	-0.10421933	0.054127296	-0.037585135	0.56782181	0.060788125	0.075266698	0.12855693	0.40473716	-0.10160308	0.47755152	0.46940456	0.15186424	0.11893365	0.40601395	0.018219245	0.4676362	0.44512017	0.022459544	0.22369261	0.77740143	-0.16467001	0.27736057	0.78040482	0.18872168	0.31213137	0.82011905	-0.12973437	0.34491407	0.83369883	0.11565583	0.14921735	0.89499703	0.024594944	0.30037273	1.3107912	-0.17777068	0.26843388	1.2945209	0.18199445	0.21127636	1.3415261	-0.0057519449	0.32862682	0.98907853	-0.26048343	0.11196933	1.0228618	0.22430314	0.55550822	0.91335243	-0.20928249	0.13894371	0.80038667	0.30769826
249	0.992	0.086198162	0.0089510489	-0.066017535	0.74824296	0.12971728	0.12881546	-0.026794106	0.06651736	-0.086265294	0.61368359	0.099481485	0.14156701	-0.019970778	0.080464853	0.00043193766	0.62932382	0.13368725	0.058018139	-0.10369629	0.055714855	-0.038182945	0.57964622	0.060303494	0.075262196	0.1326045	0.40413748	-0.10186689	0.48505747	0.46794084	0.15129182	0.12295737	0.4050911	0.018152108	0.47490662	0.44301669	0.021586948	0.22895544	0.77617393	-0.16439051	0.28474877	0.77859704	0.18850379	0.31809367	0.81878479	-0.12992809	0.352379	0.8322107	0.11545754	0.15584541	0.89391217	0.025483019	0.30694182	1.3092098	-0.17734357	0.2749708	1.2928884	0.18257945	0.21784333	1.34013	-0.0052745328	0.33795855	0.98805572	-0.25987049	0.11799433	1.021739	0.22469197	0.56487705	0.91442243	-0.2078593	0.14306859	0.79930559	0.30859109
